<svg width="32" height="40" viewBox="0 0 32 40" fill="none" xmlns="http://www.w3.org/2000/svg">
<path id="Vector" d="M22.8988 18.7334C23.1974 18.9443 23.5664 19.041 23.9346 19.005C24.3028 18.9689 24.6441 18.8027 24.8927 18.5382C25.4482 17.8819 25.1282 17.1191 24.4402 16.7643C19.5723 13.76 13.8426 12.3205 8.07361 12.6523C7.06263 12.7114 6.06181 12.8804 5.09017 13.1561C4.16592 13.4682 3.30556 13.9341 2.54817 14.5327C1.73296 15.2036 1.08359 16.0417 0.64758 16.9858C0.211575 17.93 -3.1588e-05 18.9561 0.02825 19.9893C-0.012216 22.0967 0.826535 24.2964 2.60336 25.5062C3.50047 26.1262 4.49377 26.6052 5.54633 26.9254C6.36462 27.1345 7.2005 27.2734 8.04418 27.3405C17.046 27.7378 24.7676 24.0019 29.3072 19.4358C30.7308 17.9245 32 16.1044 32 14.075C32 12.3011 30.9626 10.105 29.3072 8.39847C25.3746 4.38584 17.4212 -0.0951014 7.94485 0.49739C3.05216 0.806054 0.0135347 3.61595 0.0135347 7.83081C-0.025433 9.527 0.571514 11.1798 1.69471 12.4856C1.90977 12.7234 2.20085 12.8853 2.52197 12.9457C2.84309 13.0061 3.17591 12.9615 3.46785 12.8191H3.48992C3.65557 12.744 3.80013 12.6317 3.91145 12.4916C4.02277 12.3515 4.09761 12.1876 4.12969 12.0139C4.16176 11.8401 4.15014 11.6614 4.09579 11.4928C4.04144 11.3243 3.94594 11.1708 3.81733 11.0452C3.40333 10.613 3.08172 10.1063 2.8709 9.55415C2.66007 9.002 2.56415 8.41519 2.58864 7.82726C2.58864 4.96414 4.6009 3.19376 8.10672 2.97379C16.6928 2.43807 23.8811 6.47553 27.431 10.1014C28.7259 11.4248 29.4249 13.0533 29.4286 13.9189C29.4267 14.0567 29.4156 14.1941 29.3955 14.3305C29.3734 14.4511 29.3293 14.5753 29.2961 14.6853C27.2545 20.3618 16.9724 25.4814 8.10304 24.857C5.13064 24.747 2.50771 23.083 2.58496 20.0035C2.7505 11.7512 17.8737 15.5367 22.8988 18.7334ZM28.8289 21.4439C28.6591 21.5291 28.51 21.6484 28.3919 21.7937C28.2737 21.9391 28.1892 22.1071 28.1439 22.2865C28.0986 22.4659 28.0936 22.6526 28.1293 22.8341C28.1649 23.0155 28.2404 23.1875 28.3507 23.3385C29.0202 24.307 29.4543 25.3572 29.4543 26.0597C29.4543 31.1296 16.7811 37.7924 8.11775 37.0084C4.60825 36.7884 2.59967 35.018 2.59967 32.1514C2.55758 30.9698 2.94831 29.8117 3.70329 28.8802C3.82724 28.7379 3.91475 28.5695 3.95872 28.3885C4.0027 28.2075 4.00191 28.0191 3.95643 27.8385C3.91095 27.6579 3.82206 27.4901 3.69692 27.3487C3.57179 27.2074 3.41393 27.0964 3.2361 27.0247C2.99984 26.9301 2.73901 26.9083 2.4894 26.9623C2.23978 27.0163 2.0136 27.1434 1.84186 27.3263C0.612169 28.649 -0.0459705 30.3754 0.00249904 32.1514C-0.104184 37.09 4.37282 39.8005 9.63339 39.538C19.1981 39.6267 31.9963 33.2973 31.9963 26.0561C31.9963 24.8605 31.4555 23.4023 30.5248 22.0151C30.3584 21.7414 30.0964 21.5336 29.7857 21.4289C29.4751 21.3243 29.1359 21.3296 28.8289 21.4439Z" fill="#2A915E"/>
</svg>
