<svg width="1203" height="197" viewBox="0 0 1203 197" fill="none" xmlns="http://www.w3.org/2000/svg">
<g clip-path="url(#clip0_83880_48)">
<path d="M0 0H1203V189C1203 193.418 1199.42 197 1195 197H7.99999C3.58171 197 0 193.418 0 189V0Z" fill="white"/>
<g clip-path="url(#clip1_83880_48)">
<g clip-path="url(#clip2_83880_48)">
<g clip-path="url(#clip3_83880_48)">
<g clip-path="url(#clip4_83880_48)">
<circle cx="98.5" cy="47.5" r="23.5" fill="url(#paint0_linear_83880_48)" stroke="white" stroke-width="4"/>
<path d="M106.852 39.457C107.711 40.2305 108.355 41.1328 108.699 42.207C109.043 43.3242 109.086 44.3984 108.828 45.5156C108.57 46.6328 108.055 47.5781 107.281 48.3516L98.9883 56.9453C98.6875 57.2461 98.3438 57.375 98 57.375C97.6133 57.375 97.2695 57.2461 97.0117 56.9453L88.7188 48.3945C87.9023 47.5781 87.3867 46.6328 87.1289 45.5156C86.8711 44.3984 86.957 43.3242 87.3008 42.207C87.6445 41.1328 88.2461 40.2305 89.1484 39.457C89.9219 38.8125 90.7813 38.3828 91.7695 38.2109C92.7148 38.0391 93.7031 38.125 94.6484 38.4258C95.5938 38.7695 96.4102 39.2852 97.1406 40.0156L98 40.875L98.8594 40.0156C99.5469 39.2852 100.406 38.7695 101.352 38.4258C102.297 38.125 103.242 38.0391 104.23 38.2109C105.176 38.3828 106.078 38.8125 106.852 39.457Z" fill="white"/>
</g>
<circle cx="55.5" cy="47.5" r="23.5" fill="url(#paint1_linear_83880_48)" stroke="white" stroke-width="4"/>
<path d="M48.4688 46.375C48.7266 46.375 48.9844 46.5039 49.1992 46.6758C49.3711 46.8906 49.5 47.1484 49.5 47.4062V57.7188C49.5 58.0195 49.3711 58.2773 49.1992 58.4492C48.9844 58.6641 48.7266 58.75 48.4688 58.75H45.0312C44.7305 58.75 44.4727 58.6641 44.3008 58.4492C44.0859 58.2773 44 58.0195 44 57.7188V47.4062C44 47.1484 44.0859 46.8906 44.3008 46.6758C44.4727 46.5039 44.7305 46.375 45.0312 46.375H48.4688ZM46.75 57.0312C47.0078 57.0312 47.2656 56.9453 47.4805 56.7305C47.6523 56.5586 47.7812 56.3008 47.7812 56C47.7812 55.7422 47.6523 55.4844 47.4805 55.2695C47.2656 55.0977 47.0078 54.9688 46.75 54.9688C46.4492 54.9688 46.1914 55.0977 46.0195 55.2695C45.8047 55.4844 45.7188 55.7422 45.7188 56C45.7188 56.3008 45.8047 56.5586 46.0195 56.7305C46.1914 56.9453 46.4492 57.0312 46.75 57.0312ZM60.5 40.2305C60.5 38.8555 60.1133 37.9102 59.3398 37.3086C58.8242 36.9648 58.1797 36.75 57.4062 36.75C57.0195 36.75 56.6758 37.0938 56.418 37.6953C56.2461 38.0391 56.1172 38.5547 55.9453 39.1992V39.2422C55.7734 39.8867 55.6445 40.3594 55.5586 40.6172C55.3867 41.1328 55.1289 41.5195 54.8711 41.7773C54.3984 42.207 53.8398 42.9375 53.1523 43.9258C52.293 45.1289 51.6055 46.0312 51.0469 46.6328C50.918 46.7188 50.875 46.8477 50.875 46.9766V56.1719C50.875 56.3438 50.918 56.4727 51.0039 56.5586C51.0898 56.6445 51.2188 56.6875 51.3906 56.6875C51.8633 56.6875 52.5938 56.9453 53.582 57.375C54.5703 57.8047 55.3438 58.1055 55.9453 58.2773C56.8906 58.6211 57.8359 58.75 58.7812 58.75H58.9102C60.1562 58.75 61.1016 58.707 61.7031 58.5781C62.6914 58.4062 63.3789 58.0625 63.7656 57.5039C64.1094 56.9883 64.2383 56.3438 64.0664 55.5703C64.4102 55.1836 64.625 54.668 64.7969 54.0664C64.9258 53.4648 64.9258 52.9062 64.7539 52.3477C65.0977 51.875 65.3125 51.3164 65.3984 50.6719C65.4414 50.0703 65.3555 49.4688 65.1406 48.9102H65.1836C65.3984 48.6523 65.5703 48.3516 65.7422 47.9648C65.9141 47.6211 66 47.2344 66 46.8047C66 46.1602 65.7422 45.6016 65.2266 45.0859C64.7109 44.5703 64.1094 44.3125 63.4219 44.3125H59.082C59.125 44.0547 59.2969 43.582 59.6406 42.9805C59.8984 42.4648 60.1133 42.0781 60.2422 41.7773C60.4141 41.2617 60.5 40.7461 60.5 40.2305Z" fill="white"/>
</g>
<path d="M137.312 46.0938L138.469 34.75H150.125V37.4219H140.922L140.234 43.625C141.349 42.9688 142.615 42.6406 144.031 42.6406C146.104 42.6406 147.75 43.3281 148.969 44.7031C150.188 46.0677 150.797 47.9167 150.797 50.25C150.797 52.5938 150.161 54.4427 148.891 55.7969C147.63 57.1406 145.865 57.8125 143.594 57.8125C141.583 57.8125 139.943 57.2552 138.672 56.1406C137.401 55.026 136.677 53.4844 136.5 51.5156H139.234C139.411 52.8177 139.875 53.8021 140.625 54.4688C141.375 55.125 142.365 55.4531 143.594 55.4531C144.938 55.4531 145.99 54.9948 146.75 54.0781C147.521 53.1615 147.906 51.8958 147.906 50.2812C147.906 48.7604 147.49 47.5417 146.656 46.625C145.833 45.6979 144.734 45.2344 143.359 45.2344C142.099 45.2344 141.109 45.5104 140.391 46.0625L139.625 46.6875L137.312 46.0938ZM166.156 49.8594H169.312V52.2188H166.156V57.5H163.25V52.2188H152.891V50.5156L163.078 34.75H166.156V49.8594ZM156.172 49.8594H163.25V38.7031L162.906 39.3281L156.172 49.8594ZM181.422 57.5H178.516V38.2344L172.688 40.375V37.75L180.969 34.6406H181.422V57.5Z" fill="#606770"/>
</g>
<g clip-path="url(#clip5_83880_48)">
<path d="M835.109 57.5H820.203V55.4219L828.078 46.6719C829.245 45.349 830.047 44.276 830.484 43.4531C830.932 42.6198 831.156 41.7604 831.156 40.875C831.156 39.6875 830.797 38.7135 830.078 37.9531C829.359 37.1927 828.401 36.8125 827.203 36.8125C825.766 36.8125 824.646 37.224 823.844 38.0469C823.052 38.8594 822.656 39.9948 822.656 41.4531H819.766C819.766 39.3594 820.438 37.6667 821.781 36.375C823.135 35.0833 824.943 34.4375 827.203 34.4375C829.318 34.4375 830.99 34.9948 832.219 36.1094C833.448 37.2135 834.062 38.6875 834.062 40.5312C834.062 42.7708 832.635 45.4375 829.781 48.5312L823.688 55.1406H835.109V57.5ZM849.516 34.7344V37.1875H848.984C846.734 37.2292 844.943 37.8958 843.609 39.1875C842.276 40.4792 841.505 42.2969 841.297 44.6406C842.495 43.2656 844.13 42.5781 846.203 42.5781C848.182 42.5781 849.76 43.276 850.938 44.6719C852.125 46.0677 852.719 47.8698 852.719 50.0781C852.719 52.4219 852.078 54.2969 850.797 55.7031C849.526 57.1094 847.818 57.8125 845.672 57.8125C843.495 57.8125 841.729 56.9792 840.375 55.3125C839.021 53.6354 838.344 51.4792 838.344 48.8438V47.7344C838.344 43.5469 839.234 40.349 841.016 38.1406C842.807 35.9219 845.469 34.7865 849 34.7344H849.516ZM845.719 44.9844C844.729 44.9844 843.818 45.2812 842.984 45.875C842.151 46.4688 841.573 47.2135 841.25 48.1094V49.1719C841.25 51.0469 841.672 52.5573 842.516 53.7031C843.359 54.849 844.411 55.4219 845.672 55.4219C846.974 55.4219 847.995 54.9427 848.734 53.9844C849.484 53.026 849.859 51.7708 849.859 50.2188C849.859 48.6562 849.479 47.3958 848.719 46.4375C847.969 45.4688 846.969 44.9844 845.719 44.9844ZM881.562 50.2812C881.281 52.6875 880.391 54.5469 878.891 55.8594C877.401 57.1615 875.417 57.8125 872.938 57.8125C870.25 57.8125 868.094 56.849 866.469 54.9219C864.854 52.9948 864.047 50.4167 864.047 47.1875V45C864.047 42.8854 864.422 41.026 865.172 39.4219C865.932 37.8177 867.005 36.5885 868.391 35.7344C869.776 34.8698 871.38 34.4375 873.203 34.4375C875.62 34.4375 877.557 35.1146 879.016 36.4688C880.474 37.8125 881.323 39.6771 881.562 42.0625H878.547C878.286 40.25 877.719 38.9375 876.844 38.125C875.979 37.3125 874.766 36.9062 873.203 36.9062C871.286 36.9062 869.781 37.6146 868.688 39.0312C867.604 40.4479 867.062 42.4635 867.062 45.0781V47.2812C867.062 49.75 867.578 51.7135 868.609 53.1719C869.641 54.6302 871.083 55.3594 872.938 55.3594C874.604 55.3594 875.88 54.9844 876.766 54.2344C877.661 53.474 878.255 52.1562 878.547 50.2812H881.562ZM884.453 48.8906C884.453 47.2344 884.776 45.7448 885.422 44.4219C886.078 43.099 886.984 42.0781 888.141 41.3594C889.307 40.6406 890.635 40.2812 892.125 40.2812C894.427 40.2812 896.286 41.0781 897.703 42.6719C899.13 44.2656 899.844 46.3854 899.844 49.0312V49.2344C899.844 50.8802 899.526 52.3594 898.891 53.6719C898.266 54.974 897.365 55.9896 896.188 56.7188C895.021 57.4479 893.677 57.8125 892.156 57.8125C889.865 57.8125 888.005 57.0156 886.578 55.4219C885.161 53.8281 884.453 51.7188 884.453 49.0938V48.8906ZM887.359 49.2344C887.359 51.1094 887.792 52.6146 888.656 53.75C889.531 54.8854 890.698 55.4531 892.156 55.4531C893.625 55.4531 894.792 54.8802 895.656 53.7344C896.521 52.5781 896.953 50.9635 896.953 48.8906C896.953 47.0365 896.51 45.5365 895.625 44.3906C894.75 43.2344 893.583 42.6562 892.125 42.6562C890.698 42.6562 889.547 43.224 888.672 44.3594C887.797 45.4948 887.359 47.1198 887.359 49.2344ZM906.188 40.5938L906.266 42.4688C907.505 41.0104 909.177 40.2812 911.281 40.2812C913.646 40.2812 915.255 41.1875 916.109 43C916.672 42.1875 917.401 41.5312 918.297 41.0312C919.203 40.5312 920.271 40.2812 921.5 40.2812C925.208 40.2812 927.094 42.2448 927.156 46.1719V57.5H924.266V46.3438C924.266 45.1354 923.99 44.2344 923.438 43.6406C922.885 43.0365 921.958 42.7344 920.656 42.7344C919.583 42.7344 918.693 43.0573 917.984 43.7031C917.276 44.3385 916.865 45.1979 916.75 46.2812V57.5H913.844V46.4219C913.844 43.9635 912.641 42.7344 910.234 42.7344C908.339 42.7344 907.042 43.5417 906.344 45.1562V57.5H903.453V40.5938H906.188ZM934.25 40.5938L934.328 42.4688C935.568 41.0104 937.24 40.2812 939.344 40.2812C941.708 40.2812 943.318 41.1875 944.172 43C944.734 42.1875 945.464 41.5312 946.359 41.0312C947.266 40.5312 948.333 40.2812 949.562 40.2812C953.271 40.2812 955.156 42.2448 955.219 46.1719V57.5H952.328V46.3438C952.328 45.1354 952.052 44.2344 951.5 43.6406C950.948 43.0365 950.021 42.7344 948.719 42.7344C947.646 42.7344 946.755 43.0573 946.047 43.7031C945.339 44.3385 944.927 45.1979 944.812 46.2812V57.5H941.906V46.4219C941.906 43.9635 940.703 42.7344 938.297 42.7344C936.401 42.7344 935.104 43.5417 934.406 45.1562V57.5H931.516V40.5938H934.25ZM966.609 57.8125C964.318 57.8125 962.453 57.0625 961.016 55.5625C959.578 54.0521 958.859 52.0365 958.859 49.5156V48.9844C958.859 47.3073 959.177 45.8125 959.812 44.5C960.458 43.1771 961.354 42.1458 962.5 41.4062C963.656 40.6562 964.906 40.2812 966.25 40.2812C968.448 40.2812 970.156 41.0052 971.375 42.4531C972.594 43.901 973.203 45.974 973.203 48.6719V49.875H961.75C961.792 51.5417 962.276 52.8906 963.203 53.9219C964.141 54.9427 965.328 55.4531 966.766 55.4531C967.786 55.4531 968.651 55.2448 969.359 54.8281C970.068 54.4115 970.688 53.8594 971.219 53.1719L972.984 54.5469C971.568 56.724 969.443 57.8125 966.609 57.8125ZM966.25 42.6562C965.083 42.6562 964.104 43.0833 963.312 43.9375C962.521 44.7812 962.031 45.9688 961.844 47.5H970.312V47.2812C970.229 45.8125 969.833 44.6771 969.125 43.875C968.417 43.0625 967.458 42.6562 966.25 42.6562ZM979.297 40.5938L979.391 42.7188C980.682 41.0938 982.37 40.2812 984.453 40.2812C988.026 40.2812 989.828 42.2969 989.859 46.3281V57.5H986.969V46.3125C986.958 45.0938 986.677 44.1927 986.125 43.6094C985.583 43.026 984.734 42.7344 983.578 42.7344C982.641 42.7344 981.818 42.9844 981.109 43.4844C980.401 43.9844 979.849 44.6406 979.453 45.4531V57.5H976.562V40.5938H979.297ZM998.141 36.5V40.5938H1001.3V42.8281H998.141V53.3125C998.141 53.9896 998.281 54.5 998.562 54.8438C998.844 55.1771 999.323 55.3438 1000 55.3438C1000.33 55.3438 1000.79 55.2812 1001.38 55.1562V57.5C1000.61 57.7083 999.875 57.8125 999.156 57.8125C997.865 57.8125 996.891 57.4219 996.234 56.6406C995.578 55.8594 995.25 54.75 995.25 53.3125V42.8281H992.172V40.5938H995.25V36.5H998.141ZM1014.53 53.0156C1014.53 52.2344 1014.23 51.6302 1013.64 51.2031C1013.06 50.7656 1012.03 50.3906 1010.56 50.0781C1009.1 49.7656 1007.94 49.3906 1007.08 48.9531C1006.22 48.5156 1005.59 47.9948 1005.17 47.3906C1004.77 46.7865 1004.56 46.0677 1004.56 45.2344C1004.56 43.849 1005.15 42.6771 1006.31 41.7188C1007.49 40.7604 1008.99 40.2812 1010.81 40.2812C1012.73 40.2812 1014.28 40.776 1015.47 41.7656C1016.67 42.7552 1017.27 44.0208 1017.27 45.5625H1014.36C1014.36 44.7708 1014.02 44.0885 1013.34 43.5156C1012.68 42.9427 1011.83 42.6562 1010.81 42.6562C1009.76 42.6562 1008.94 42.8854 1008.34 43.3438C1007.75 43.8021 1007.45 44.401 1007.45 45.1406C1007.45 45.8385 1007.73 46.3646 1008.28 46.7188C1008.83 47.0729 1009.83 47.4115 1011.27 47.7344C1012.71 48.0573 1013.89 48.4427 1014.78 48.8906C1015.68 49.3385 1016.34 49.8802 1016.77 50.5156C1017.2 51.1406 1017.42 51.9062 1017.42 52.8125C1017.42 54.3229 1016.82 55.5365 1015.61 56.4531C1014.4 57.3594 1012.83 57.8125 1010.91 57.8125C1009.55 57.8125 1008.35 57.5729 1007.31 57.0938C1006.27 56.6146 1005.45 55.9479 1004.86 55.0938C1004.28 54.2292 1003.98 53.2969 1003.98 52.2969H1006.88C1006.93 53.2656 1007.31 54.0365 1008.03 54.6094C1008.76 55.1719 1009.72 55.4531 1010.91 55.4531C1012 55.4531 1012.88 55.2344 1013.53 54.7969C1014.2 54.349 1014.53 53.7552 1014.53 53.0156Z" fill="#606770"/>
<path d="M1047.78 40.6875C1047.78 41.8229 1047.48 42.8333 1046.88 43.7188C1046.28 44.6042 1045.47 45.2969 1044.45 45.7969C1045.64 46.3073 1046.58 47.0521 1047.27 48.0312C1047.96 49.0104 1048.31 50.1198 1048.31 51.3594C1048.31 53.3281 1047.65 54.8958 1046.31 56.0625C1044.99 57.2292 1043.24 57.8125 1041.08 57.8125C1038.89 57.8125 1037.14 57.2292 1035.81 56.0625C1034.5 54.8854 1033.84 53.3177 1033.84 51.3594C1033.84 50.1302 1034.18 49.0208 1034.84 48.0312C1035.52 47.0417 1036.45 46.2917 1037.64 45.7812C1036.63 45.2812 1035.83 44.5885 1035.25 43.7031C1034.67 42.8177 1034.38 41.8125 1034.38 40.6875C1034.38 38.7708 1034.99 37.25 1036.22 36.125C1037.45 35 1039.07 34.4375 1041.08 34.4375C1043.08 34.4375 1044.69 35 1045.92 36.125C1047.16 37.25 1047.78 38.7708 1047.78 40.6875ZM1045.42 51.2969C1045.42 50.026 1045.02 48.9896 1044.2 48.1875C1043.4 47.3854 1042.35 46.9844 1041.05 46.9844C1039.74 46.9844 1038.7 47.3802 1037.91 48.1719C1037.12 48.9635 1036.73 50.0052 1036.73 51.2969C1036.73 52.5885 1037.11 53.6042 1037.88 54.3438C1038.65 55.0833 1039.71 55.4531 1041.08 55.4531C1042.43 55.4531 1043.49 55.0833 1044.27 54.3438C1045.04 53.5938 1045.42 52.5781 1045.42 51.2969ZM1041.08 36.8125C1039.94 36.8125 1039.02 37.1667 1038.31 37.875C1037.61 38.5729 1037.27 39.526 1037.27 40.7344C1037.27 41.8906 1037.61 42.8281 1038.3 43.5469C1038.99 44.2552 1039.92 44.6094 1041.08 44.6094C1042.23 44.6094 1043.16 44.2552 1043.84 43.5469C1044.54 42.8281 1044.89 41.8906 1044.89 40.7344C1044.89 39.5781 1044.53 38.6354 1043.81 37.9062C1043.09 37.1771 1042.18 36.8125 1041.08 36.8125ZM1066.64 36.375L1057.22 57.5H1054.19L1063.58 37.125H1051.27V34.75H1066.64V36.375ZM1085.31 47.3594C1082.74 46.6198 1080.86 45.7135 1079.69 44.6406C1078.52 43.5573 1077.94 42.224 1077.94 40.6406C1077.94 38.849 1078.65 37.3698 1080.08 36.2031C1081.52 35.026 1083.38 34.4375 1085.67 34.4375C1087.23 34.4375 1088.62 34.7396 1089.84 35.3438C1091.07 35.9479 1092.02 36.7812 1092.69 37.8438C1093.36 38.9062 1093.7 40.0677 1093.7 41.3281H1090.69C1090.69 39.9531 1090.25 38.875 1089.38 38.0938C1088.5 37.3021 1087.27 36.9062 1085.67 36.9062C1084.19 36.9062 1083.04 37.2344 1082.2 37.8906C1081.38 38.5365 1080.97 39.4375 1080.97 40.5938C1080.97 41.5208 1081.36 42.3073 1082.14 42.9531C1082.93 43.5885 1084.27 44.1719 1086.16 44.7031C1088.05 45.2344 1089.53 45.8229 1090.59 46.4688C1091.67 47.1042 1092.46 47.849 1092.97 48.7031C1093.49 49.5573 1093.75 50.5625 1093.75 51.7188C1093.75 53.5625 1093.03 55.0417 1091.59 56.1562C1090.16 57.2604 1088.23 57.8125 1085.83 57.8125C1084.27 57.8125 1082.81 57.5156 1081.45 56.9219C1080.1 56.3177 1079.05 55.4948 1078.31 54.4531C1077.58 53.4115 1077.22 52.2292 1077.22 50.9062H1080.23C1080.23 52.2812 1080.74 53.3698 1081.75 54.1719C1082.77 54.9635 1084.13 55.3594 1085.83 55.3594C1087.41 55.3594 1088.62 55.0365 1089.47 54.3906C1090.31 53.7448 1090.73 52.8646 1090.73 51.75C1090.73 50.6354 1090.34 49.776 1089.56 49.1719C1088.78 48.5573 1087.36 47.9531 1085.31 47.3594ZM1100.05 42.6406C1101.33 41.0677 1102.99 40.2812 1105.05 40.2812C1108.62 40.2812 1110.42 42.2969 1110.45 46.3281V57.5H1107.56V46.3125C1107.55 45.0938 1107.27 44.1927 1106.72 43.6094C1106.18 43.026 1105.33 42.7344 1104.17 42.7344C1103.23 42.7344 1102.41 42.9844 1101.7 43.4844C1100.99 43.9844 1100.44 44.6406 1100.05 45.4531V57.5H1097.16V33.5H1100.05V42.6406ZM1125.22 57.5C1125.05 57.1667 1124.92 56.5729 1124.81 55.7188C1123.47 57.1146 1121.86 57.8125 1120 57.8125C1118.33 57.8125 1116.96 57.3438 1115.89 56.4062C1114.83 55.4583 1114.3 54.2604 1114.3 52.8125C1114.3 51.0521 1114.96 49.6875 1116.3 48.7188C1117.64 47.7396 1119.53 47.25 1121.95 47.25H1124.77V45.9219C1124.77 44.9115 1124.46 44.1094 1123.86 43.5156C1123.26 42.9115 1122.36 42.6094 1121.19 42.6094C1120.16 42.6094 1119.29 42.8698 1118.59 43.3906C1117.9 43.9115 1117.55 44.5417 1117.55 45.2812H1114.64C1114.64 44.4375 1114.94 43.625 1115.53 42.8438C1116.14 42.0521 1116.95 41.4271 1117.97 40.9688C1119 40.5104 1120.13 40.2812 1121.36 40.2812C1123.31 40.2812 1124.83 40.7708 1125.94 41.75C1127.04 42.7188 1127.61 44.0573 1127.66 45.7656V53.5469C1127.66 55.099 1127.85 56.3333 1128.25 57.25V57.5H1125.22ZM1120.42 55.2969C1121.33 55.2969 1122.19 55.0625 1123 54.5938C1123.81 54.125 1124.4 53.5156 1124.77 52.7656V49.2969H1122.5C1118.96 49.2969 1117.19 50.3333 1117.19 52.4062C1117.19 53.3125 1117.49 54.0208 1118.09 54.5312C1118.7 55.0417 1119.47 55.2969 1120.42 55.2969ZM1140.36 43.1875C1139.92 43.1146 1139.45 43.0781 1138.94 43.0781C1137.04 43.0781 1135.76 43.8854 1135.08 45.5V57.5H1132.19V40.5938H1135L1135.05 42.5469C1135.99 41.0365 1137.34 40.2812 1139.08 40.2812C1139.64 40.2812 1140.07 40.3542 1140.36 40.5V43.1875ZM1149.73 57.8125C1147.44 57.8125 1145.58 57.0625 1144.14 55.5625C1142.7 54.0521 1141.98 52.0365 1141.98 49.5156V48.9844C1141.98 47.3073 1142.3 45.8125 1142.94 44.5C1143.58 43.1771 1144.48 42.1458 1145.62 41.4062C1146.78 40.6562 1148.03 40.2812 1149.38 40.2812C1151.57 40.2812 1153.28 41.0052 1154.5 42.4531C1155.72 43.901 1156.33 45.974 1156.33 48.6719V49.875H1144.88C1144.92 51.5417 1145.4 52.8906 1146.33 53.9219C1147.27 54.9427 1148.45 55.4531 1149.89 55.4531C1150.91 55.4531 1151.78 55.2448 1152.48 54.8281C1153.19 54.4115 1153.81 53.8594 1154.34 53.1719L1156.11 54.5469C1154.69 56.724 1152.57 57.8125 1149.73 57.8125ZM1149.38 42.6562C1148.21 42.6562 1147.23 43.0833 1146.44 43.9375C1145.65 44.7812 1145.16 45.9688 1144.97 47.5H1153.44V47.2812C1153.35 45.8125 1152.96 44.6771 1152.25 43.875C1151.54 43.0625 1150.58 42.6562 1149.38 42.6562ZM1169.53 53.0156C1169.53 52.2344 1169.23 51.6302 1168.64 51.2031C1168.06 50.7656 1167.03 50.3906 1165.56 50.0781C1164.1 49.7656 1162.94 49.3906 1162.08 48.9531C1161.22 48.5156 1160.59 47.9948 1160.17 47.3906C1159.77 46.7865 1159.56 46.0677 1159.56 45.2344C1159.56 43.849 1160.15 42.6771 1161.31 41.7188C1162.49 40.7604 1163.99 40.2812 1165.81 40.2812C1167.73 40.2812 1169.28 40.776 1170.47 41.7656C1171.67 42.7552 1172.27 44.0208 1172.27 45.5625H1169.36C1169.36 44.7708 1169.02 44.0885 1168.34 43.5156C1167.68 42.9427 1166.83 42.6562 1165.81 42.6562C1164.76 42.6562 1163.94 42.8854 1163.34 43.3438C1162.75 43.8021 1162.45 44.401 1162.45 45.1406C1162.45 45.8385 1162.73 46.3646 1163.28 46.7188C1163.83 47.0729 1164.83 47.4115 1166.27 47.7344C1167.71 48.0573 1168.89 48.4427 1169.78 48.8906C1170.68 49.3385 1171.34 49.8802 1171.77 50.5156C1172.2 51.1406 1172.42 51.9062 1172.42 52.8125C1172.42 54.3229 1171.82 55.5365 1170.61 56.4531C1169.4 57.3594 1167.83 57.8125 1165.91 57.8125C1164.55 57.8125 1163.35 57.5729 1162.31 57.0938C1161.27 56.6146 1160.45 55.9479 1159.86 55.0938C1159.28 54.2292 1158.98 53.2969 1158.98 52.2969H1161.88C1161.93 53.2656 1162.31 54.0365 1163.03 54.6094C1163.76 55.1719 1164.72 55.4531 1165.91 55.4531C1167 55.4531 1167.88 55.2344 1168.53 54.7969C1169.2 54.349 1169.53 53.7552 1169.53 53.0156Z" fill="#606770"/>
</g>
</g>
<rect x="31" y="95" width="1141" height="2" fill="#DADDE1"/>
<g clip-path="url(#clip6_83880_48)">
<g clip-path="url(#clip7_83880_48)">
<g clip-path="url(#clip8_83880_48)">
<path d="M227.912 149.961C228.076 150.945 228.158 151.93 227.994 152.914C227.83 153.98 227.584 154.883 227.092 155.621C227.256 156.605 227.174 157.59 226.928 158.574C226.6 159.559 226.189 160.461 225.615 161.117C225.615 163.414 225.041 165.219 223.729 166.531C222.416 167.844 220.529 168.5 218.15 168.5H214.787C213.146 168.5 211.342 168.254 209.373 167.762C208.225 167.516 206.584 167.023 204.615 166.285L202.154 165.465C201.334 165.301 200.76 165.137 200.268 165.137V165.875C200.268 166.613 199.939 167.27 199.447 167.762C198.955 168.254 198.299 168.5 197.643 168.5H189.768C189.029 168.5 188.373 168.254 187.881 167.762C187.389 167.27 187.143 166.613 187.143 165.875V144.875C187.143 144.219 187.389 143.562 187.881 143.07C188.373 142.578 189.029 142.25 189.768 142.25H197.643C198.545 142.25 199.283 142.66 199.775 143.398C200.021 143.398 200.268 143.316 200.432 143.234C200.924 142.988 201.498 142.414 202.318 141.512C202.811 141.02 203.549 140.117 204.533 138.805C205.682 137.164 206.584 136.098 207.158 135.605C207.486 135.277 207.732 134.785 207.979 134.047C208.143 133.637 208.307 132.98 208.471 131.996C209.127 128.387 210.439 126.5 212.326 126.5C214.623 126.5 216.346 127.156 217.494 128.469C218.561 129.781 219.135 131.668 219.135 134.129C219.135 135.195 218.971 136.262 218.643 137.246C218.396 137.902 218.068 138.641 217.576 139.625L217.412 139.871H223.154C224.795 139.871 226.189 140.527 227.338 141.676C228.486 142.906 229.143 144.301 229.143 145.941C229.143 147.582 228.732 148.895 227.912 149.961ZM189.768 165.875H197.643V144.875H189.768V165.875ZM224.549 149.141C225.205 148.977 225.697 148.648 226.025 147.992C226.354 147.418 226.518 146.68 226.518 145.859C226.518 145.039 226.189 144.219 225.533 143.562C224.877 142.906 224.057 142.496 223.154 142.496H213.967C213.967 141.758 214.049 141.02 214.377 140.281C214.541 139.871 214.787 139.215 215.197 138.395C215.607 137.574 215.936 136.918 216.1 136.426C216.346 135.688 216.51 134.949 216.51 134.129C216.51 132.652 216.264 131.504 215.936 130.848C215.279 129.699 214.131 129.125 212.326 129.125C211.998 129.453 211.67 129.945 211.506 130.602C211.342 131.012 211.178 131.668 211.014 132.488C210.768 133.719 210.604 134.621 210.439 135.113C210.029 136.098 209.537 136.918 208.963 137.492C208.389 138.066 207.486 139.133 206.338 140.691C205.025 142.414 204.041 143.562 203.385 144.219C202.236 145.367 201.17 145.859 200.268 145.859V162.512C200.924 162.512 201.744 162.676 202.729 162.922C203.303 163.086 204.287 163.414 205.682 163.906C207.486 164.562 208.963 164.973 209.947 165.219C211.67 165.711 213.311 165.875 214.787 165.875H218.15C219.791 165.875 221.104 165.465 221.924 164.562C222.826 163.578 223.154 162.102 222.826 160.051C223.564 159.723 224.057 158.984 224.385 157.918C224.713 156.852 224.549 155.867 224.057 154.965C224.631 154.719 225.041 154.145 225.287 153.324C225.451 152.504 225.533 151.684 225.369 150.863C225.205 150.043 224.959 149.469 224.549 149.141ZM195.674 161.938C195.674 161.445 195.428 160.953 195.1 160.543C194.689 160.215 194.197 159.969 193.705 159.969C193.131 159.969 192.639 160.215 192.311 160.543C191.9 160.953 191.736 161.445 191.736 161.938C191.736 162.512 191.9 163.004 192.311 163.332C192.639 163.742 193.131 163.906 193.705 163.906C194.197 163.906 194.689 163.742 195.1 163.332C195.428 163.004 195.674 162.512 195.674 161.938Z" fill="#606770"/>
<path d="M248.408 154.844H258.736V158H244.455V135.25H248.408V154.844ZM265.439 158H261.643V141.094H265.439V158ZM261.408 136.703C261.408 136.12 261.59 135.635 261.955 135.25C262.33 134.865 262.861 134.672 263.549 134.672C264.236 134.672 264.768 134.865 265.143 135.25C265.518 135.635 265.705 136.12 265.705 136.703C265.705 137.276 265.518 137.755 265.143 138.141C264.768 138.516 264.236 138.703 263.549 138.703C262.861 138.703 262.33 138.516 261.955 138.141C261.59 137.755 261.408 137.276 261.408 136.703ZM275.08 150.75L273.393 152.484V158H269.596V134H273.393V147.844L274.58 146.359L279.252 141.094H283.814L277.533 148.141L284.486 158H280.096L275.08 150.75ZM293.439 158.312C291.033 158.312 289.08 157.557 287.58 156.047C286.09 154.526 285.346 152.505 285.346 149.984V149.516C285.346 147.828 285.669 146.323 286.314 145C286.971 143.667 287.887 142.63 289.064 141.891C290.242 141.151 291.554 140.781 293.002 140.781C295.304 140.781 297.08 141.516 298.33 142.984C299.59 144.453 300.221 146.531 300.221 149.219V150.75H289.174C289.288 152.146 289.752 153.25 290.564 154.062C291.387 154.875 292.419 155.281 293.658 155.281C295.398 155.281 296.814 154.578 297.908 153.172L299.955 155.125C299.278 156.135 298.372 156.922 297.236 157.484C296.111 158.036 294.846 158.312 293.439 158.312ZM292.986 143.828C291.945 143.828 291.101 144.193 290.455 144.922C289.82 145.651 289.413 146.667 289.236 147.969H296.471V147.688C296.387 146.417 296.049 145.458 295.455 144.812C294.861 144.156 294.038 143.828 292.986 143.828Z" fill="#606770"/>
</g>
<g clip-path="url(#clip9_83880_48)">
<path d="M496.893 126.5C498.287 126.5 499.518 127.074 500.584 128.059C501.568 129.125 502.143 130.355 502.143 131.75V155.375C502.143 156.852 501.568 158.082 500.584 159.066C499.518 160.133 498.287 160.625 496.893 160.625H485.08L474.826 168.336C474.662 168.5 474.416 168.5 474.17 168.5C473.924 168.5 473.678 168.418 473.514 168.254C473.35 168.09 473.268 167.844 473.268 167.516V160.625H465.393C463.916 160.625 462.686 160.133 461.701 159.066C460.635 158.082 460.143 156.852 460.143 155.375V131.75C460.143 130.355 460.635 129.125 461.701 128.059C462.686 127.074 463.916 126.5 465.393 126.5H496.893ZM499.518 155.375V131.75C499.518 131.094 499.189 130.438 498.697 129.945C498.205 129.453 497.549 129.125 496.893 129.125H465.393C464.654 129.125 463.998 129.453 463.506 129.945C463.014 130.438 462.768 131.094 462.768 131.75V155.375C462.768 156.113 463.014 156.77 463.506 157.262C463.998 157.754 464.654 158 465.393 158H475.893V164.234L484.178 158H496.893C497.549 158 498.205 157.754 498.697 157.262C499.189 156.77 499.518 156.113 499.518 155.375Z" fill="#606770"/>
<path d="M536.814 150.594C536.585 153.021 535.689 154.917 534.127 156.281C532.564 157.635 530.486 158.312 527.893 158.312C526.08 158.312 524.481 157.885 523.096 157.031C521.721 156.167 520.658 154.943 519.908 153.359C519.158 151.776 518.768 149.938 518.736 147.844V145.719C518.736 143.573 519.117 141.682 519.877 140.047C520.637 138.411 521.726 137.151 523.143 136.266C524.57 135.38 526.215 134.938 528.08 134.938C530.59 134.938 532.611 135.62 534.143 136.984C535.674 138.349 536.564 140.276 536.814 142.766H532.877C532.689 141.13 532.21 139.953 531.439 139.234C530.679 138.505 529.559 138.141 528.08 138.141C526.361 138.141 525.038 138.771 524.111 140.031C523.195 141.281 522.726 143.12 522.705 145.547V147.562C522.705 150.021 523.143 151.896 524.018 153.188C524.903 154.479 526.195 155.125 527.893 155.125C529.445 155.125 530.611 154.776 531.393 154.078C532.174 153.38 532.669 152.219 532.877 150.594H536.814ZM539.283 149.391C539.283 147.734 539.611 146.245 540.268 144.922C540.924 143.589 541.846 142.568 543.033 141.859C544.221 141.141 545.585 140.781 547.127 140.781C549.408 140.781 551.257 141.516 552.674 142.984C554.101 144.453 554.872 146.401 554.986 148.828L555.002 149.719C555.002 151.385 554.679 152.875 554.033 154.188C553.398 155.5 552.481 156.516 551.283 157.234C550.096 157.953 548.721 158.312 547.158 158.312C544.773 158.312 542.861 157.521 541.424 155.938C539.997 154.344 539.283 152.224 539.283 149.578V149.391ZM543.08 149.719C543.08 151.458 543.439 152.823 544.158 153.812C544.877 154.792 545.877 155.281 547.158 155.281C548.439 155.281 549.434 154.781 550.143 153.781C550.861 152.781 551.221 151.318 551.221 149.391C551.221 147.682 550.851 146.328 550.111 145.328C549.382 144.328 548.387 143.828 547.127 143.828C545.887 143.828 544.903 144.323 544.174 145.312C543.445 146.292 543.08 147.76 543.08 149.719ZM561.783 141.094L561.893 142.859C563.08 141.474 564.705 140.781 566.768 140.781C569.028 140.781 570.575 141.646 571.408 143.375C572.637 141.646 574.367 140.781 576.596 140.781C578.46 140.781 579.846 141.297 580.752 142.328C581.669 143.359 582.137 144.88 582.158 146.891V158H578.361V147C578.361 145.927 578.127 145.141 577.658 144.641C577.189 144.141 576.413 143.891 575.33 143.891C574.465 143.891 573.757 144.125 573.205 144.594C572.663 145.052 572.283 145.656 572.064 146.406L572.08 158H568.283V146.875C568.231 144.885 567.215 143.891 565.236 143.891C563.715 143.891 562.637 144.51 562.002 145.75V158H558.205V141.094H561.783ZM589.627 141.094L589.736 142.859C590.924 141.474 592.549 140.781 594.611 140.781C596.872 140.781 598.419 141.646 599.252 143.375C600.481 141.646 602.21 140.781 604.439 140.781C606.304 140.781 607.689 141.297 608.596 142.328C609.512 143.359 609.981 144.88 610.002 146.891V158H606.205V147C606.205 145.927 605.971 145.141 605.502 144.641C605.033 144.141 604.257 143.891 603.174 143.891C602.309 143.891 601.601 144.125 601.049 144.594C600.507 145.052 600.127 145.656 599.908 146.406L599.924 158H596.127V146.875C596.075 144.885 595.059 143.891 593.08 143.891C591.559 143.891 590.481 144.51 589.846 145.75V158H586.049V141.094H589.627ZM621.346 158.312C618.939 158.312 616.986 157.557 615.486 156.047C613.997 154.526 613.252 152.505 613.252 149.984V149.516C613.252 147.828 613.575 146.323 614.221 145C614.877 143.667 615.794 142.63 616.971 141.891C618.148 141.151 619.46 140.781 620.908 140.781C623.21 140.781 624.986 141.516 626.236 142.984C627.497 144.453 628.127 146.531 628.127 149.219V150.75H617.08C617.195 152.146 617.658 153.25 618.471 154.062C619.294 154.875 620.325 155.281 621.564 155.281C623.304 155.281 624.721 154.578 625.814 153.172L627.861 155.125C627.184 156.135 626.278 156.922 625.143 157.484C624.018 158.036 622.752 158.312 621.346 158.312ZM620.893 143.828C619.851 143.828 619.007 144.193 618.361 144.922C617.726 145.651 617.32 146.667 617.143 147.969H624.377V147.688C624.294 146.417 623.955 145.458 623.361 144.812C622.768 144.156 621.945 143.828 620.893 143.828ZM634.611 141.094L634.721 143.047C635.971 141.536 637.611 140.781 639.643 140.781C643.163 140.781 644.955 142.797 645.018 146.828V158H641.221V147.047C641.221 145.974 640.986 145.182 640.518 144.672C640.059 144.151 639.304 143.891 638.252 143.891C636.721 143.891 635.58 144.583 634.83 145.969V158H631.033V141.094H634.611ZM653.658 136.984V141.094H656.643V143.906H653.658V153.344C653.658 153.99 653.783 154.458 654.033 154.75C654.294 155.031 654.752 155.172 655.408 155.172C655.846 155.172 656.288 155.12 656.736 155.016V157.953C655.872 158.193 655.038 158.312 654.236 158.312C651.32 158.312 649.861 156.703 649.861 153.484V143.906H647.08V141.094H649.861V136.984H653.658Z" fill="#606770"/>
</g>
<g clip-path="url(#clip10_83880_48)">
<path d="M862.49 142.581C863.064 143.237 863.393 144.057 863.393 144.878C863.393 145.78 863.064 146.518 862.49 147.174L848.053 162.268C847.396 162.924 846.576 163.253 845.674 163.253C844.771 163.253 844.033 163.007 843.377 162.35C842.721 161.694 842.393 160.956 842.393 159.971V152.753C837.635 152.835 834.271 153.081 832.221 153.573C829.596 154.229 827.873 155.46 827.135 157.182C826.314 158.987 826.479 161.612 827.545 165.139C827.709 165.96 827.627 166.616 827.217 167.272C826.807 167.928 826.232 168.257 825.494 168.421C824.756 168.585 824.1 168.503 823.443 168.01C821.475 166.616 819.916 164.975 818.768 163.007C816.963 160.217 816.143 157.1 816.143 153.655C816.143 149.225 817.373 145.78 819.916 143.155C822.049 140.94 825.33 139.299 829.596 138.315C832.877 137.495 837.143 137.085 842.393 137.003V129.784C842.393 128.882 842.721 128.143 843.377 127.487C844.033 126.831 844.771 126.503 845.674 126.503C846.576 126.503 847.396 126.831 848.053 127.487L862.49 142.581ZM860.604 145.37C860.686 145.206 860.768 145.042 860.768 144.878C860.768 144.714 860.686 144.549 860.604 144.385L846.166 129.292C845.92 129.128 845.674 129.128 845.428 129.21C845.1 129.374 845.018 129.538 845.018 129.784V139.628C839.604 139.628 835.42 139.874 832.467 140.366C828.201 141.022 824.92 142.335 822.705 144.221C820.08 146.436 818.768 149.553 818.768 153.655C818.768 156.444 819.424 158.987 820.818 161.202C821.803 163.007 823.197 164.565 825.002 165.878C823.689 161.12 823.689 157.592 825.166 155.132C826.479 152.999 828.939 151.604 832.631 150.866C835.256 150.374 839.357 150.128 845.018 150.128V159.971C845.018 160.299 845.1 160.464 845.428 160.546C845.674 160.71 845.92 160.628 846.166 160.464L860.604 145.37Z" fill="#606770"/>
<path d="M892.596 152.141C892.596 151.141 892.242 150.37 891.533 149.828C890.835 149.286 889.57 148.74 887.736 148.188C885.903 147.635 884.445 147.021 883.361 146.344C881.288 145.042 880.252 143.344 880.252 141.25C880.252 139.417 880.997 137.906 882.486 136.719C883.986 135.531 885.929 134.938 888.314 134.938C889.898 134.938 891.309 135.229 892.549 135.812C893.788 136.396 894.762 137.229 895.471 138.312C896.179 139.385 896.533 140.578 896.533 141.891H892.596C892.596 140.703 892.221 139.776 891.471 139.109C890.731 138.432 889.669 138.094 888.283 138.094C886.992 138.094 885.986 138.37 885.268 138.922C884.559 139.474 884.205 140.245 884.205 141.234C884.205 142.068 884.59 142.766 885.361 143.328C886.132 143.88 887.403 144.422 889.174 144.953C890.945 145.474 892.367 146.073 893.439 146.75C894.512 147.417 895.299 148.188 895.799 149.062C896.299 149.927 896.549 150.943 896.549 152.109C896.549 154.005 895.82 155.516 894.361 156.641C892.913 157.755 890.945 158.312 888.455 158.312C886.809 158.312 885.294 158.01 883.908 157.406C882.533 156.792 881.46 155.948 880.689 154.875C879.929 153.802 879.549 152.552 879.549 151.125H883.502C883.502 152.417 883.929 153.417 884.783 154.125C885.637 154.833 886.861 155.188 888.455 155.188C889.83 155.188 890.861 154.911 891.549 154.359C892.247 153.797 892.596 153.057 892.596 152.141ZM903.393 142.938C904.632 141.5 906.2 140.781 908.096 140.781C911.7 140.781 913.528 142.839 913.58 146.953V158H909.783V147.094C909.783 145.927 909.528 145.104 909.018 144.625C908.518 144.135 907.778 143.891 906.799 143.891C905.278 143.891 904.143 144.568 903.393 145.922V158H899.596V134H903.393V142.938ZM927.533 158C927.367 157.677 927.221 157.151 927.096 156.422C925.887 157.682 924.408 158.312 922.658 158.312C920.96 158.312 919.575 157.828 918.502 156.859C917.429 155.891 916.893 154.693 916.893 153.266C916.893 151.464 917.559 150.083 918.893 149.125C920.236 148.156 922.153 147.672 924.643 147.672H926.971V146.562C926.971 145.688 926.726 144.99 926.236 144.469C925.747 143.938 925.002 143.672 924.002 143.672C923.137 143.672 922.429 143.891 921.877 144.328C921.325 144.755 921.049 145.302 921.049 145.969H917.252C917.252 145.042 917.559 144.177 918.174 143.375C918.788 142.562 919.622 141.927 920.674 141.469C921.736 141.01 922.919 140.781 924.221 140.781C926.2 140.781 927.778 141.281 928.955 142.281C930.132 143.271 930.736 144.667 930.768 146.469V154.094C930.768 155.615 930.981 156.828 931.408 157.734V158H927.533ZM923.361 155.266C924.111 155.266 924.814 155.083 925.471 154.719C926.137 154.354 926.637 153.865 926.971 153.25V150.062H924.924C923.518 150.062 922.46 150.307 921.752 150.797C921.044 151.286 920.689 151.979 920.689 152.875C920.689 153.604 920.929 154.188 921.408 154.625C921.898 155.052 922.549 155.266 923.361 155.266ZM943.596 144.562C943.096 144.479 942.58 144.438 942.049 144.438C940.309 144.438 939.137 145.104 938.533 146.438V158H934.736V141.094H938.361L938.455 142.984C939.372 141.516 940.643 140.781 942.268 140.781C942.809 140.781 943.257 140.854 943.611 141L943.596 144.562ZM953.127 158.312C950.721 158.312 948.768 157.557 947.268 156.047C945.778 154.526 945.033 152.505 945.033 149.984V149.516C945.033 147.828 945.356 146.323 946.002 145C946.658 143.667 947.575 142.63 948.752 141.891C949.929 141.151 951.242 140.781 952.689 140.781C954.992 140.781 956.768 141.516 958.018 142.984C959.278 144.453 959.908 146.531 959.908 149.219V150.75H948.861C948.976 152.146 949.439 153.25 950.252 154.062C951.075 154.875 952.106 155.281 953.346 155.281C955.085 155.281 956.502 154.578 957.596 153.172L959.643 155.125C958.965 156.135 958.059 156.922 956.924 157.484C955.799 158.036 954.533 158.312 953.127 158.312ZM952.674 143.828C951.632 143.828 950.788 144.193 950.143 144.922C949.507 145.651 949.101 146.667 948.924 147.969H956.158V147.688C956.075 146.417 955.736 145.458 955.143 144.812C954.549 144.156 953.726 143.828 952.674 143.828Z" fill="#606770"/>
</g>
</g>
<g clip-path="url(#clip11_83880_48)">
<circle cx="1125.39" cy="147.5" r="19" fill="#E7E7E7"/>
<path d="M1156.65 142.219C1156.09 142.219 1155.71 142.531 1155.52 143.031C1155.27 143.531 1155.4 143.969 1155.77 144.344L1163.84 152.406C1164.09 152.656 1164.34 152.781 1164.71 152.781C1165.02 152.781 1165.34 152.656 1165.59 152.406L1173.65 144.344C1174.02 143.969 1174.09 143.531 1173.9 143.031C1173.65 142.531 1173.27 142.219 1172.77 142.219H1156.65Z" fill="#606770"/>
</g>
</g>
</g>
<defs>
<linearGradient id="paint0_linear_83880_48" x1="98.5" y1="26" x2="98.5" y2="69" gradientUnits="userSpaceOnUse">
<stop stop-color="#F95E73"/>
<stop offset="1" stop-color="#E3223C"/>
</linearGradient>
<linearGradient id="paint1_linear_83880_48" x1="55.5" y1="26" x2="55.5" y2="69" gradientUnits="userSpaceOnUse">
<stop stop-color="#48ADF8"/>
<stop offset="1" stop-color="#1E5FED"/>
</linearGradient>
<clipPath id="clip0_83880_48">
<rect width="1203" height="197" fill="white"/>
</clipPath>
<clipPath id="clip1_83880_48">
<rect width="1145" height="52" fill="white" transform="translate(29 21)"/>
</clipPath>
<clipPath id="clip2_83880_48">
<rect width="159" height="52" fill="white" transform="translate(29 21)"/>
</clipPath>
<clipPath id="clip3_83880_48">
<rect width="95" height="52" fill="white" transform="translate(29 21)"/>
</clipPath>
<clipPath id="clip4_83880_48">
<rect width="52" height="52" fill="white" transform="translate(72 21)"/>
</clipPath>
<clipPath id="clip5_83880_48">
<rect width="356" height="43" fill="white" transform="translate(818 25.5)"/>
</clipPath>
<clipPath id="clip6_83880_48">
<rect width="986.857" height="57" fill="white" transform="translate(187.143 119)"/>
</clipPath>
<clipPath id="clip7_83880_48">
<rect width="777.25" height="57" fill="white" transform="translate(187.143 119)"/>
</clipPath>
<clipPath id="clip8_83880_48">
<rect width="115" height="57" fill="white" transform="translate(187.143 119)"/>
</clipPath>
<clipPath id="clip9_83880_48">
<rect width="198" height="57" fill="white" transform="translate(460.143 119)"/>
</clipPath>
<clipPath id="clip10_83880_48">
<rect width="148.25" height="57" fill="white" transform="translate(816.143 119)"/>
</clipPath>
<clipPath id="clip11_83880_48">
<rect width="67.6075" height="38" fill="white" transform="translate(1106.39 128.5)"/>
</clipPath>
</defs>
</svg>
